<svg width="16" height="12" viewBox="0 0 16 12" fill="none" xmlns="http://www.w3.org/2000/svg">
<path d="M14.3138 11.5H2.12628C1.33527 11.5 0.720032 10.8848 0.720032 10.0938V1.65625C0.720032 0.894531 1.33527 0.25 2.12628 0.25H14.3138C15.0755 0.25 15.72 0.894531 15.72 1.65625V10.0938C15.72 10.8848 15.0755 11.5 14.3138 11.5ZM4.00128 1.89062C3.09308 1.89062 2.36066 2.65234 2.36066 3.53125C2.36066 4.43945 3.09308 5.17188 4.00128 5.17188C4.88019 5.17188 5.64191 4.43945 5.64191 3.53125C5.64191 2.65234 4.88019 1.89062 4.00128 1.89062ZM2.59503 9.625H13.845V6.34375L11.2669 3.79492C11.1204 3.64844 10.9153 3.64844 10.7689 3.79492L6.81378 7.75L5.17316 6.13867C5.02667 5.99219 4.82159 5.99219 4.67511 6.13867L2.59503 8.21875V9.625Z" fill="white"/>
</svg>
