<svg width="16" height="16" viewBox="0 0 16 16" fill="none" xmlns="http://www.w3.org/2000/svg">
<path d="M14.5834 1.10742C14.9056 1.19531 15.14 1.45898 15.14 1.78125C15.14 9.31055 9.04626 15.375 1.54626 15.375C1.1947 15.375 0.93103 15.1699 0.84314 14.8477L0.140015 11.8008C0.0814209 11.4785 0.227905 11.127 0.550171 10.9805L3.83142 9.57422C4.12439 9.45703 4.44666 9.54492 4.65173 9.7793L6.11658 11.5664C8.40173 10.4824 10.2474 8.60742 11.3021 6.38086L9.51501 4.91602C9.28064 4.71094 9.19275 4.38867 9.30994 4.0957L10.7162 0.814453C10.8627 0.492188 11.2142 0.316406 11.5365 0.404297L14.5834 1.10742Z" fill="white"/>
</svg>
