<svg width="18" height="14" viewBox="0 0 18 14" fill="none" xmlns="http://www.w3.org/2000/svg">
<path d="M15.7388 0.3125C16.5005 0.3125 17.145 0.957031 17.145 1.71875V2.1875H0.27002V1.71875C0.27002 0.957031 0.885254 0.3125 1.67627 0.3125H15.7388ZM0.27002 12.0312V3.125H17.145V12.0312C17.145 12.8223 16.5005 13.4375 15.7388 13.4375H1.67627C0.885254 13.4375 0.27002 12.8223 0.27002 12.0312ZM10.5825 5.23438V5.70312C10.5825 5.84961 10.6704 5.9375 10.8169 5.9375H15.0356C15.1528 5.9375 15.27 5.84961 15.27 5.70312V5.23438C15.27 5.11719 15.1528 5 15.0356 5H10.8169C10.6704 5 10.5825 5.11719 10.5825 5.23438ZM10.5825 7.10938V7.57812C10.5825 7.72461 10.6704 7.8125 10.8169 7.8125H15.0356C15.1528 7.8125 15.27 7.72461 15.27 7.57812V7.10938C15.27 6.99219 15.1528 6.875 15.0356 6.875H10.8169C10.6704 6.875 10.5825 6.99219 10.5825 7.10938ZM10.5825 8.98438V9.45312C10.5825 9.59961 10.6704 9.6875 10.8169 9.6875H15.0356C15.1528 9.6875 15.27 9.59961 15.27 9.45312V8.98438C15.27 8.86719 15.1528 8.75 15.0356 8.75H10.8169C10.6704 8.75 10.5825 8.86719 10.5825 8.98438ZM5.42627 5C4.37158 5 3.55127 5.84961 3.55127 6.875C3.55127 7.92969 4.37158 8.75 5.42627 8.75C6.45166 8.75 7.30127 7.92969 7.30127 6.875C7.30127 5.84961 6.45166 5 5.42627 5ZM2.23291 11.0059C2.11572 11.2695 2.37939 11.5625 2.67236 11.5625H8.15088C8.44385 11.5625 8.70752 11.2988 8.59033 11.0059C8.35596 10.2441 7.65283 9.6875 6.83252 9.6875H6.56885C6.21729 9.86328 5.83643 9.92188 5.42627 9.92188C4.98682 9.92188 4.60596 9.86328 4.25439 9.6875H4.02002C3.17041 9.6875 2.46729 10.2441 2.23291 11.0059Z" fill="white"/>
</svg>
