<svg width="15" height="16" viewBox="0 0 15 16" fill="none" xmlns="http://www.w3.org/2000/svg">
<path d="M14.4576 9.63281C14.6041 9.7207 14.6627 9.89648 14.6334 10.043C14.2818 11.0977 13.7545 12.0352 13.022 12.8262C12.9049 12.9434 12.7291 12.9727 12.5826 12.8848L11.3228 12.1816C10.7955 12.6211 10.2095 12.9727 9.56502 13.207V14.6426C9.56502 14.7891 9.44783 14.9355 9.27205 14.9941C8.24666 15.1992 7.16267 15.2285 6.07869 14.9941C5.93221 14.9355 5.81502 14.7891 5.81502 14.6426V13.207C5.14119 12.9727 4.55525 12.6211 4.02791 12.1816L2.76814 12.8848C2.62166 12.9727 2.44588 12.9434 2.32869 12.8262C1.62556 12.0352 1.06892 11.0977 0.746658 10.043C0.688065 9.89648 0.746658 9.7207 0.893143 9.63281L2.15291 8.92969C2.03572 8.22656 2.03572 7.55273 2.15291 6.84961L0.893143 6.14648C0.746658 6.05859 0.688065 5.88281 0.746658 5.73633C1.06892 4.68164 1.62556 3.74414 2.32869 2.95312C2.44588 2.83594 2.62166 2.80664 2.76814 2.89453L4.02791 3.62695C4.55525 3.1582 5.14119 2.80664 5.81502 2.57227V1.13672C5.81502 0.990234 5.90291 0.84375 6.07869 0.814453C7.10408 0.580078 8.18806 0.550781 9.27205 0.814453C9.44783 0.84375 9.56502 0.990234 9.56502 1.13672V2.57227C10.2095 2.80664 10.7955 3.1582 11.3228 3.59766L12.5826 2.89453C12.7291 2.80664 12.9049 2.83594 13.022 2.95312C13.7252 3.74414 14.2818 4.68164 14.6041 5.73633C14.6627 5.88281 14.6041 6.05859 14.4576 6.14648L13.1978 6.84961C13.3443 7.55273 13.3443 8.22656 13.1978 8.92969L14.4576 9.63281ZM7.69002 10.2188C8.97908 10.2188 10.0338 9.19336 10.0338 7.875C10.0338 6.58594 8.97908 5.53125 7.69002 5.53125C6.37166 5.53125 5.34627 6.58594 5.34627 7.875C5.34627 9.19336 6.37166 10.2188 7.69002 10.2188Z" fill="white"/>
</svg>
